<svg width="120" height="120" viewBox="0 0 120 120" fill="none" xmlns="http://www.w3.org/2000/svg">
<path d="M117.523 49.7463C114.821 47.8713 108.628 47.1681 103.787 48.1056C103.224 43.4181 100.635 39.3171 96.1308 35.6842L93.5414 33.8092L91.7395 36.5046C89.4881 40.0202 88.3622 44.9421 88.6997 49.6296C88.8122 51.2697 89.3752 54.1994 91.0641 56.7775C89.4881 57.715 86.2228 58.8869 81.9445 58.8869H0.541401L0.316401 59.8244C-0.472037 64.5114 -0.472037 79.1594 8.76046 90.4089C15.7411 98.9632 26.0995 103.299 39.7228 103.299C69.2212 103.299 91.0641 89.1194 101.31 63.4567C105.363 63.5739 114.033 63.4567 118.424 54.6677C118.537 54.4333 118.762 53.9646 119.55 52.2072L120 51.2697L117.523 49.7463ZM65.6184 16.7008H53.2341V28.4191H65.6184V16.7008ZM65.6184 30.7628H53.2341V42.4811H65.6184V30.7624V30.7628ZM50.9817 30.7628H38.5973V42.4811H50.9817V30.7624V30.7628ZM36.345 30.7628H23.9602V42.4811H36.345V30.7624V30.7628ZM21.7083 44.8249H9.32343V56.5432H21.7078V44.8244L21.7083 44.8249ZM36.345 44.8249H23.9602V56.5432H36.345V44.8244V44.8249ZM50.9817 44.8249H38.5973V56.5432H50.9817V44.8244V44.8249ZM65.6189 44.8249H53.2336V56.5432H65.6189V44.8244V44.8249ZM80.2556 44.8249H67.8703V56.5432H80.2556V44.8244V44.8249Z" fill="#2396ED"/>
</svg>
