<svg width="120" height="120" viewBox="0 0 120 120" fill="none" xmlns="http://www.w3.org/2000/svg">
<path d="M107.524 59.083C107.524 52.9145 102.524 47.9135 96.355 47.9135C95.9579 47.9135 95.5667 47.9348 95.1807 47.9756L110.522 2.72803H45.3267L60.6468 47.936C60.4207 47.9218 60.1943 47.9144 59.9678 47.9139C53.7993 47.9139 48.7983 52.914 48.7983 59.0834C48.7983 64.0695 52.0662 68.2911 56.5761 69.7273C54.1943 73.8533 51.1967 77.5697 47.7936 80.7807C43.166 85.146 37.8699 88.4565 32.1419 90.496C25.3221 86.9926 22.1017 79.2012 25.0074 72.3698C25.3357 71.5981 25.6707 70.8162 25.9909 70.0377C30.9314 68.8846 34.6135 64.4555 34.6135 59.1633C34.6135 52.9944 29.6125 47.9939 23.4436 47.9939C17.2747 47.9939 12.2742 52.9944 12.2742 59.1633C12.2742 62.9461 14.156 66.2876 17.0332 68.3081C14.2687 74.6024 10.2048 81.1901 8.93862 88.8251C7.42116 97.9749 8.93352 107.688 16.8474 113.173C35.278 125.947 55.2844 105.254 76.3784 100.052C84.0231 98.1671 92.4149 98.4707 99.1501 94.5701C104.208 91.6406 107.543 86.7855 108.489 81.3351C109.424 75.9507 108.061 70.5896 104.927 66.2425C106.608 64.2361 107.528 61.7009 107.524 59.083Z" fill="#99425B"/>
<path d="M105.802 80.8682C104.98 85.6005 102.057 89.7336 97.7836 92.2094C93.7992 94.5169 89.0249 95.2057 83.9695 95.9344C81.2615 96.3247 78.4613 96.7291 75.7257 97.4034C68.4926 99.187 61.4865 102.667 54.7117 106.032C41.1527 112.767 29.4433 118.583 18.4022 110.931C10.3145 105.325 10.6878 94.9544 11.63 89.2715C12.5033 84.006 14.8643 79.1569 17.1471 74.4676C17.536 73.6706 17.9218 72.8721 18.3044 72.0721C19.4551 72.5321 20.6626 72.835 21.8942 72.9726C19.5702 80.6424 23.225 88.9819 30.8957 92.9225L31.9459 93.462L33.0573 93.0662C39.1216 90.9063 44.7097 87.4411 49.6661 82.7645C52.8698 79.7419 55.6245 76.3979 57.8886 72.8247C58.5769 72.9285 59.272 72.9807 59.9681 72.9807C67.0087 72.9807 72.8387 67.7174 73.741 60.9197C76.6228 60.8142 79.6837 60.8134 82.5822 60.9188C83.4835 67.7174 89.3144 72.9811 96.355 72.9811C99.2989 72.9811 102.029 72.0585 104.279 70.4913C105.841 73.6882 106.424 77.2852 105.802 80.8682ZM23.4444 50.7217C28.0993 50.7217 31.8859 54.5088 31.8859 59.1637C31.8859 60.8355 31.3953 62.3946 30.553 63.7076C29.1499 65.896 26.7646 67.396 24.0244 67.5831C23.8326 67.5958 23.6391 67.6052 23.4444 67.6052C22.407 67.6052 21.4133 67.416 20.4945 67.0724C18.6441 66.3766 17.0945 65.0568 16.113 63.3406C15.3843 62.0692 15.0014 60.6291 15.0025 59.1637C15.0025 54.5088 18.7896 50.7217 23.4444 50.7217ZM51.5271 59.0833C51.5271 54.8541 54.6534 51.3425 58.7156 50.7353C59.1246 50.6737 59.543 50.6418 59.9686 50.6418C62.6748 50.6418 65.0843 51.9237 66.6294 53.9102C67.0165 54.4055 67.347 54.9424 67.615 55.511C68.1397 56.6287 68.4112 57.8485 68.4101 59.0833C68.4101 59.7581 68.3284 60.4141 68.1784 61.0434C67.3556 64.4873 64.4189 67.12 60.8202 67.4823C60.5404 67.5104 60.2564 67.5248 59.9686 67.5248C58.3449 67.5262 56.7556 67.0563 55.3936 66.1723C53.0696 64.6668 51.5271 62.0523 51.5271 59.0833ZM86.7595 49.0448C84.9225 50.7983 83.6005 53.021 82.9368 55.4723C79.7549 55.355 76.5699 55.355 73.3881 55.4723C72.6738 52.8226 71.1933 50.4849 69.2013 48.7094L77.9366 31.0466L86.7595 49.0453V49.0448ZM49.132 5.45675H106.717L93.116 45.5703C92.5308 45.7104 91.9555 45.8887 91.3936 46.1039L77.9579 18.6956L64.484 45.9402C63.8966 45.7386 63.2963 45.5768 62.6872 45.4559L49.132 5.45675ZM104.796 59.0837C104.796 59.9298 104.67 60.747 104.438 61.5187C103.886 63.3355 102.74 64.9144 101.184 66.0023C99.7693 66.9949 98.083 67.5268 96.355 67.5252C92.4574 67.5252 89.1694 64.8691 88.2026 61.2721C88.0106 60.5585 87.9134 59.8227 87.9135 59.0837C87.9135 57.9298 88.1465 56.8294 88.5674 55.8269C88.7846 55.3139 89.0521 54.8237 89.3659 54.3634C90.885 52.121 93.4485 50.6422 96.355 50.6422C96.6216 50.6422 96.8843 50.6558 97.145 50.6805C101.431 51.0797 104.797 54.695 104.797 59.0837H104.796ZM110.253 59.0837C110.253 52.2987 105.364 46.6375 98.9252 45.4283L114.328 0H41.5222L56.9485 45.5201C50.7333 46.9032 46.0712 52.4573 46.0712 59.0833C46.0712 64.0588 48.7005 68.4287 52.641 70.8846C50.7456 73.7086 48.4981 76.366 45.9224 78.7963C41.8372 82.6497 37.2865 85.5724 32.3804 87.4955C27.4385 84.3913 25.3496 78.537 27.5189 73.4374L27.689 73.0377L28.0079 72.2877C33.4357 70.3943 37.3418 65.2284 37.3418 59.1637C37.3418 51.5002 31.1074 45.2658 23.4444 45.2658C15.781 45.2658 9.54658 51.5002 9.54658 59.1637C9.54658 63.0315 11.1368 66.5342 13.6955 69.0563C13.2183 70.0674 12.7338 71.0751 12.2422 72.0793C9.90246 76.8843 7.25104 82.3304 6.24804 88.3786C4.25651 100.39 7.46916 109.992 15.2946 115.415C20.043 118.706 24.8654 120 29.7179 120C38.855 120 48.0984 115.409 57.139 110.919C63.6498 107.685 70.3825 104.341 77.0327 102.701C79.5073 102.091 82.0532 101.723 84.7489 101.335C90.0946 100.563 95.622 99.7662 100.518 96.9306C106.194 93.6431 110.079 88.1286 111.178 81.8019C112.121 76.3702 110.986 70.9301 108.218 66.316C109.552 64.1395 110.256 61.636 110.253 59.0833L110.253 59.0837Z" fill="white"/>
</svg>
