<svg width="120" height="120" viewBox="0 0 120 120" fill="none" xmlns="http://www.w3.org/2000/svg">
<path fill-rule="evenodd" clip-rule="evenodd" d="M70.6686 0C69.8448 0.00936615 69.0282 0.154155 68.2514 0.428571C75.1557 4.96286 67.0514 11.5457 70.8228 17.1429C70.559 15.2693 70.8562 13.3595 71.677 11.6547C72.4977 9.94995 73.8052 8.52656 75.4343 7.56429C76.6557 6.54857 77.4357 6.18429 77.1743 4.50429C76.7628 1.75286 73.0943 0 70.6686 0ZM80.5257 1.77429C79.5743 6.58714 78.3828 6.76286 74.8557 9.86143C73.4786 10.9449 72.5065 12.4606 72.096 14.164C71.6855 15.8675 71.8605 17.6596 72.5928 19.2514C58.0214 13.5943 39.3443 10.1743 25.6514 19.9629C20.7271 23.4814 17.7186 28.5343 11.6457 30.5957C7.71998 31.9371 3.86284 31.5429 1.41141 35.4343C0.511723 36.558 0.041734 37.9654 0.085715 39.4042C0.129696 40.843 0.68477 42.2191 1.65141 43.2857C2.37998 44.0357 3.79427 44.5157 4.37712 45.2786C4.7157 45.7071 4.70712 46.1357 5.02855 46.7057C5.59525 48.0348 6.41637 49.2403 7.4457 50.2543C8.07141 50.7729 10.24 51.2786 10.6086 51.8314C11.0671 52.5214 9.86712 55.26 10.8743 55.6886C11.5557 56.0014 13.54 52.5 13.7328 52.1914C13.3386 54.9471 12.82 59.8371 15.9186 55.7657C17.3886 53.8329 17.4786 53.1943 19.9514 52.7657C24.8319 51.9298 29.8326 52.1146 34.6381 53.3084C39.4436 54.5023 43.9494 56.6792 47.8713 59.7019C51.7932 62.7245 55.046 66.5273 57.4244 70.8702C59.8028 75.2131 61.2552 80.0019 61.69 84.9343C61.2271 82.7914 58.4286 79.3629 55.8228 80.1771C54.7128 80.52 54.3014 82.4357 53.5728 83.5457C52.653 84.9541 51.5178 86.2094 50.2085 87.2657C50.4321 85.1881 50.328 83.0882 49.9 81.0429C49.12 84.2486 47.5557 89.5671 43.6171 88.7057C42.3051 88.5054 41.0757 87.9403 40.0694 87.0749C39.0631 86.2095 38.3202 85.0787 37.9257 83.8114C37.4157 80.5543 40.8571 76.7357 35.3243 76.4657C24.2243 75.9214 26.7914 92.2457 33.3443 96.5014C31.8383 96.668 30.3692 97.0776 28.9943 97.7143C33.1535 100.131 37.8401 101.496 42.6468 101.69C47.4534 101.883 52.2346 100.901 56.575 98.8262C60.9153 96.7519 64.6835 93.6491 67.5519 89.7873C70.4203 85.9255 72.3023 81.4217 73.0343 76.6671C74.5607 83.6224 73.5801 90.8933 70.2657 97.1957C68.8785 99.8304 67.1013 102.24 64.9943 104.344C63.7085 105.63 61.1628 107.044 60.3271 108.377C65.5284 107.689 70.6112 106.294 75.4343 104.229C70.4421 111.031 63.8068 116.457 56.1486 120C64.3718 119.418 72.3209 116.798 79.279 112.377C86.2371 107.956 91.9854 101.873 96.0057 94.6757C94.7245 101.874 91.879 108.703 87.67 114.681C93.3311 110.891 98.1475 105.972 101.817 100.232C105.486 94.4917 107.929 88.0549 108.991 81.3257C110.045 86.2519 110.347 91.3092 109.887 96.3257C114.539 89.8646 117.682 82.4422 119.085 74.6051C120.487 66.7682 120.114 58.7163 117.991 51.0429C116.367 45.0782 113.932 39.3648 110.753 34.0629C109.523 31.9968 108.176 30.0021 106.72 28.0886C106.15 27.3471 103.103 24.6343 103.103 23.8029C103.077 23.8857 103.056 23.8857 103.039 23.8029C103.039 37.8 88.0386 46.5643 75.4771 42.93C80.3398 42.5484 84.9267 40.5192 88.48 37.1778C92.0333 33.8365 94.3404 29.3829 95.02 24.5529C95.5933 19.6687 94.4651 14.7362 91.8256 10.5868C89.1861 6.43752 85.1968 3.32511 80.53 1.77429H80.5257Z" fill="url(#paint0_linear_1_189)"/>
<defs>
<linearGradient id="paint0_linear_1_189" x1="59.9928" y1="120" x2="59.9928" y2="0" gradientUnits="userSpaceOnUse">
<stop stop-color="#FFB199"/>
<stop offset="1" stop-color="#FF0844"/>
</linearGradient>
</defs>
</svg>
